<?xml version="1.0" encoding="UTF-8"?>
<!DOCTYPE svg PUBLIC "-//W3C//DTD SVG 1.1//EN" "http://www.w3.org/Graphics/SVG/1.1/DTD/svg11.dtd">
<svg width="185mm" height="108mm" viewBox="0 0 18500 10800" version="1.1" xmlns="http://www.w3.org/2000/svg" xmlns:xlink="http://www.w3.org/1999/xlink" stroke-width="28.222" stroke-linejoin="round" xml:space="preserve">
 <path fill="rgb(255,255,255)" stroke="none" d="M 9146,10744 L -13,10744 -13,-13 18305,-13 18305,10744 9146,10744 Z"/>
 <path fill="none" stroke="rgb(179,179,179)" stroke-linejoin="round" d="M 9865,8592 L 2330,8592 2330,195 17401,195 17401,8592 9865,8592 Z"/>
 <path fill="none" stroke="rgb(0,0,0)" stroke-linejoin="round" d="M 2330,4393 L 17401,4393"/>
 <path fill="none" stroke="rgb(0,0,0)" stroke-linejoin="round" d="M 2330,8591 L 2330,194"/>
 <path fill="none" stroke="rgb(0,0,0)" stroke-width="79" stroke-linejoin="round" d="M 2330,4393 L 2424,4149 2519,3906 2613,3668 2709,3435 2804,3209 2898,2993 2993,2787 3087,2593 3182,2413 3278,2248 3372,2099 3467,1968 3561,1855 3656,1762 3752,1689 3846,1636 3941,1604 4035,1593 4130,1604 4226,1636 4320,1689 4415,1762 4509,1855 4604,1968 4699,2099 4794,2248 4889,2413 4983,2593 5078,2787 5173,2993 5268,3209 5363,3435 5457,3668 5552,3906 5647,4149 5741,4392 5837,4636 5931,4879 6026,5117 6121,5350 6215,5575 6311,5791 6405,5997 6500,6191 6595,6371 6689,6536 6784,6685 6879,6816 6974,6929 7069,7022 7163,7095 7258,7148 7353,7180 7448,7191 7543,7180 7637,7148 7732,7095 7828,7022 7922,6929 8017,6816 8111,6685 8206,6536 8301,6371 8396,6191 8491,5997 8585,5791 8680,5575 8775,5350 8870,5117 8965,4879 9059,4636 9154,4393 9249,4149 9343,3906 9439,3668 9533,3435 9628,3209 9723,2993 9817,2787 9913,2593 10007,2413 10102,2248 10197,2099 10291,1968 10386,1855 10481,1762 10576,1689 10671,1636 10765,1604 10860,1593 10955,1604 11050,1636 11145,1689 11239,1762 11334,1855 11429,1968 11524,2099 11619,2248 11713,2413 11808,2593 11902,2787 11998,2993 12093,3209 12187,3435 12282,3668 12376,3906 12472,4149 12567,4392 12661,4636 12756,4879 12851,5117 12945,5350 13041,5575 13135,5791 13230,5997 13325,6191 13419,6371 13515,6536 13609,6685 13704,6816 13799,6929 13893,7022 13988,7095 14083,7148 14178,7180 14273,7191 14367,7180 14462,7148 14557,7095 14652,7022 14747,6929 14841,6816 14936,6685 15031,6536 15126,6371 15221,6191 15315,5997 15410,5791 15504,5575 15600,5350 15695,5117 15789,4879 15884,4636 15978,4393 16074,4149 16169,3906 16263,3668 16358,3435 16452,3209 16547,2993 16643,2787 16737,2593 16832,2413 16926,2248 17021,2099 17117,1968 17211,1855 17306,1762 17401,1689"/>
 <text class="SVGTextShape"><tspan class="TextParagraph"><tspan class="TextPosition" x="17915" y="4931"><tspan font-family="Liberation Sans, sans-serif" font-size="706px" font-weight="400" fill="rgb(0,0,0)" stroke="none" style="white-space: pre">T</tspan></tspan></tspan></text>
</svg>